<svg xmlns="http://www.w3.org/2000/svg" aria-hidden="true" style="position:absolute;width:0;height:0;overflow:hidden">
  <defs>
    <symbol id="icon-group" viewBox="0 0 44 32">
      <path  d="M3.333 26.694c.171.19.262.429.257.673.009.16-.023.319-.091.466s-.174.279-.307.384a1.857 1.857 0 0 1-1.157.31H0v-4.266h1.993a1.85 1.85 0 0 1 1.104.283c.129.097.231.22.298.358s.098.289.089.44a.917.917 0 0 1-.232.652c-.155.17-.368.287-.607.334.27.044.514.174.688.365zM.947 26.05h.852a.869.869 0 0 0 .542-.142c.064-.052.114-.117.145-.189s.045-.15.037-.228c.006-.077-.007-.155-.038-.227s-.08-.137-.142-.19a.896.896 0 0 0-.558-.144H.947v1.119zm1.477 1.636c.068-.053.122-.12.157-.195s.05-.157.044-.238c.005-.082-.011-.165-.046-.24s-.09-.143-.16-.197a.95.95 0 0 0-.579-.154H.946v1.173h.905a.973.973 0 0 0 .572-.148zM7.408 28.528l-1.109-1.667h-.417v1.667h-.954v-4.266h1.806a1.91 1.91 0 0 1 1.257.363c.252.232.405.537.429.86s-.08.645-.295.905c-.223.23-.527.383-.861.433l1.181 1.705H7.408zM5.882 26.28h.78c.542 0 .813-.215.813-.646.005-.088-.009-.176-.044-.259s-.087-.158-.155-.221a.912.912 0 0 0-.613-.173h-.789l.009 1.298zM12.621 27.67H10.72l-.336.859h-1l1.745-4.218h1.081l1.739 4.218h-1l-.329-.859zm-.255-.646-.694-1.801-.694 1.801h1.389zM19.147 28.528H18.2l-2.123-2.901v2.901h-.944v-4.266h.944L18.2 27.18v-2.918h.947v4.266zM24.55 27.507a1.96 1.96 0 0 1-.857.752c-.412.187-.869.28-1.331.269h-1.685v-4.266h1.685c.461-.011.918.079 1.331.263.362.164.661.424.857.744.195.347.296.73.296 1.119s-.102.772-.296 1.119zm-1.084-.102c.27-.283.419-.645.419-1.018s-.149-.735-.419-1.018a1.766 1.766 0 0 0-1.185-.363h-.657v2.761h.657c.433.024.859-.106 1.185-.363zM13.214.533s12.22 4.154 11.961 10.164v10.166s-12.211-4.156-11.957-10.166L13.213.533zM36.062 18.483c2.308-1.43 4.978-2.316 7.764-2.576v-3.182c-3.211 1.114-5.935 3.134-7.764 5.758z" />
      <path d="M34.675 19.442c1.889-3.424 5.164-6.067 9.151-7.384v-9.17S26.422 8.805 26.79 17.364v14.474s.776-.265 1.995-.761c0-.463 0-.929.056-1.398.36-3.974 2.459-7.656 5.834-10.237z" />
      <path d="M33.02 24.819c.091-1.004.295-1.997.609-2.963-2.102 2.229-3.374 4.995-3.639 7.909-.025.275-.039.55-.046.834a52.795 52.795 0 0 0 3.347-1.588 13.52 13.52 0 0 1-.271-4.191zM33.712 24.871a12.935 12.935 0 0 0 .215 3.795c4.755-2.561 10.098-6.519 9.892-11.302v-.417c-3.397.342-6.576 1.679-9.047 3.805a13.074 13.074 0 0 0-1.06 4.118z" />
    </symbol>
  </defs>
</svg>
